# xmcd CD database file
#
# Track frame offsets:
#	150
#	23069
#	44853
#	66839
#	90419
#	114402
#	139939
#	156854
#	174757
#	197093
#	221479
#	241375
#	260758
#	284676
#	310286
#
# Disc length: 4510 seconds
#
# Revision: 0
# Processed by: cddbd v1.5.2PL0 Copyright (c) Steve Scherf et al.
# Submitted via: CDex 1.70beta2
#
DISCID=de119c0f
DTITLE=Michael Köhlmeier - Märchenwelt - Verwandelt, verzaubert, verflucht (4) and Der Tod (1)
DYEAR=2012
DGENRE=Hörbuch
TTITLE0=Der Berg der lichten Frauen (aus Irland)
TTITLE1=Der Berg der lichten Frauen (aus Irland)
TTITLE2=Der Berg der lichten Frauen (aus Irland)
TTITLE3=Der Berg der lichten Frauen (aus Irland)
TTITLE4=Der Berg der lichten Frauen (aus Irland)
TTITLE5=Der Berg der lichten Frauen (aus Irland)
TTITLE6=Vorwort
TTITLE7=Vorwort
TTITLE8=Der Jäger Gracchus (Franz Kafka)
TTITLE9=Der Jäger Gracchus (Franz Kafka)
TTITLE10=Der Jäger Gracchus (Franz Kafka)
TTITLE11=Das Land, wo man nie stirbt (aus Italien)
TTITLE12=Das Land, wo man nie stirbt (aus Italien)
TTITLE13=Die viermal getötete Frau (aus Island)
TTITLE14=Die viermal getötete Frau (aus Island)
EXTD=YEAR: 2012
EXTT0=
EXTT1=
EXTT2=
EXTT3=
EXTT4=
EXTT5=
EXTT6=
EXTT7=
EXTT8=
EXTT9=
EXTT10=
EXTT11=
EXTT12=
EXTT13=
EXTT14=
PLAYORDER=
